<svg width="88" height="87" viewBox="0 0 88 87" fill="none" xmlns="http://www.w3.org/2000/svg">
<path d="M38.1039 28.853C35.2888 30.0187 32.8826 31.9931 31.1896 34.5264C29.4966 37.0597 28.5928 40.0382 28.5926 43.0852C28.5924 46.1321 29.4957 49.1107 31.1883 51.6443C32.881 54.1778 35.2869 56.1526 38.1018 57.3188C40.9168 58.4849 44.0144 58.7902 47.0028 58.1959C49.9912 57.6016 52.7363 56.1345 54.891 53.98C57.0456 51.8256 58.5129 49.0806 59.1074 46.0922C59.702 43.1038 59.3969 40.0062 58.231 37.1912M55.4052 32.7266C53.7796 30.9405 51.7576 29.5606 49.5019 28.6978C47.2461 27.835 44.8194 27.5133 42.4167 27.7587M86.0001 49.1996V36.9716C86.0001 36.0721 85.6428 35.2094 85.0067 34.5733C84.3707 33.9373 83.508 33.5799 82.6084 33.5799H77.0746C76.364 31.0874 75.3729 28.6835 74.1202 26.4145L78.0225 22.514C78.3382 22.199 78.5887 21.8248 78.7597 21.4128C78.9306 21.0008 79.0186 20.5591 79.0186 20.1131C79.0186 19.667 78.9306 19.2254 78.7597 18.8134C78.5887 18.4014 78.3382 18.0271 78.0225 17.7121L69.3754 9.06684C69.0604 8.75109 68.6861 8.50058 68.2742 8.32966C67.8622 8.15874 67.4205 8.07076 66.9745 8.07076C66.5284 8.07076 66.0867 8.15874 65.6747 8.32966C65.2628 8.50058 64.8885 8.75109 64.5735 9.06684L60.7052 12.9352C58.4278 11.6633 56.0131 10.6548 53.5076 9.92904V4.47911C53.5076 3.57957 53.1503 2.71689 52.5142 2.08083C51.8781 1.44476 51.0154 1.0874 50.1159 1.0874H37.8879C36.9884 1.0874 36.1257 1.44476 35.4896 2.08083C34.8535 2.71689 34.4962 3.57957 34.4962 4.47911V9.85763C31.9622 10.5719 29.5184 11.5745 27.213 12.8459L23.4303 9.06327C23.1153 8.74752 22.7411 8.49701 22.3291 8.32608C21.9171 8.15516 21.4754 8.06719 21.0294 8.06719C20.5833 8.06719 20.1417 8.15516 19.7297 8.32608C19.3177 8.49701 18.9434 8.74752 18.6284 9.06327L9.98135 17.7086C9.6656 18.0236 9.41509 18.3978 9.24417 18.8098C9.07324 19.2218 8.98527 19.6635 8.98527 20.1095C8.98527 20.5556 9.07324 20.9972 9.24417 21.4092C9.41509 21.8212 9.6656 22.1954 9.98135 22.5105L13.7301 26.2592C12.4389 28.5733 11.4205 31.0293 10.6954 33.5781H5.39183C4.49229 33.5781 3.62961 33.9355 2.99355 34.5716C2.35748 35.2076 2.00012 36.0703 2.00012 36.9698V49.1978C2.00012 50.0974 2.35748 50.9601 2.99355 51.5961C3.62961 52.2322 4.49229 52.5895 5.39183 52.5895H10.6865C11.412 55.1382 12.4304 57.5942 13.7211 59.9085L9.97242 63.6572C9.65667 63.9722 9.40615 64.3465 9.23523 64.7585C9.06431 65.1705 8.97633 65.6121 8.97633 66.0582C8.97633 66.5042 9.06431 66.9459 9.23523 67.3579C9.40615 67.7698 9.65667 68.1441 9.97242 68.4591L18.6195 77.1062C18.9345 77.4219 19.3088 77.6724 19.7208 77.8434C20.1327 78.0143 20.5744 78.1023 21.0204 78.1023C21.4665 78.1023 21.9081 78.0143 22.3201 77.8434C22.7321 77.6724 23.1064 77.4219 23.4214 77.1062L27.2041 73.3218C29.5095 74.5931 31.9532 75.5958 34.4873 76.31V81.6885C34.4873 82.5881 34.8446 83.4508 35.4807 84.0869C36.1168 84.7229 36.9795 85.0803 37.879 85.0803H50.107C51.0065 85.0803 51.8692 84.7229 52.5053 84.0869C53.1413 83.4508 53.4987 82.5881 53.4987 81.6885V76.244C56.0042 75.5176 58.4189 74.5085 60.6962 73.2361L64.5646 77.1062C64.8796 77.4219 65.2538 77.6724 65.6658 77.8434C66.0778 78.0143 66.5195 78.1023 66.9655 78.1023C67.4116 78.1023 67.8532 78.0143 68.2652 77.8434C68.6772 77.6724 69.0514 77.4219 69.3665 77.1062L78.0136 68.4591C78.3293 68.1441 78.5798 67.7698 78.7507 67.3579C78.9217 66.9459 79.0096 66.5042 79.0096 66.0582C79.0096 65.6121 78.9217 65.1705 78.7507 64.7585C78.5798 64.3465 78.3293 63.9722 78.0136 63.6572L74.1113 59.7567C75.364 57.4877 76.3551 55.0838 77.0657 52.5913H82.5995C83.0456 52.5925 83.4877 52.5056 83.9002 52.3357C84.3127 52.1658 84.6877 51.9161 85.0036 51.6011C85.3195 51.286 85.5701 50.9117 85.7411 50.4996C85.9121 50.0875 86.0001 49.6458 86.0001 49.1996ZM70.3465 36.4093L67.3493 29.1761C67.2402 28.9122 67.0802 28.6725 66.8783 28.4706C66.6765 28.2686 66.4369 28.1084 66.1731 27.9992C65.9093 27.8899 65.6266 27.8337 65.3411 27.8338C65.0556 27.8339 64.7729 27.8903 64.5092 27.9997L61.2371 29.3546C60.206 28.054 59.0304 26.8748 57.733 25.8397L59.0843 22.5747C59.1937 22.311 59.25 22.0283 59.2501 21.7428C59.2502 21.4573 59.194 21.1746 59.0848 20.9108C58.9755 20.6471 58.8153 20.4074 58.6134 20.2056C58.4115 20.0038 58.1717 19.8437 57.9079 19.7346L50.6746 16.7374C50.142 16.517 49.5436 16.517 49.011 16.7376C48.4785 16.9582 48.0553 17.3813 47.8345 17.9138L46.4921 21.152C44.832 20.9571 43.1551 20.9517 41.4938 21.1359L40.1603 17.9228C39.9392 17.3901 39.5157 16.967 38.9829 16.7464C38.45 16.5259 37.8514 16.5258 37.3185 16.7464L30.0852 19.7436C29.8214 19.8527 29.5817 20.0127 29.3797 20.2145C29.1778 20.4164 29.0176 20.656 28.9083 20.9198C28.7991 21.1835 28.7429 21.4663 28.743 21.7518C28.7431 22.0373 28.7994 22.32 28.9088 22.5837L30.2262 25.7665C28.9041 26.8101 27.7062 28.002 26.656 29.3189L23.4892 28.0086C23.2255 27.8992 22.9428 27.8428 22.6573 27.8428C22.3718 27.8427 22.0891 27.8989 21.8253 28.0081C21.5616 28.1174 21.3219 28.2775 21.1201 28.4795C20.9183 28.6814 20.7583 28.9212 20.6491 29.185L17.6519 36.4182C17.4314 36.9511 17.4314 37.5498 17.652 38.0826C17.8726 38.6155 18.2957 39.039 18.8283 39.2601L21.9683 40.5597C21.7728 42.2451 21.7728 43.9475 21.9683 45.633L18.8355 46.9307C18.3029 47.1515 17.8799 47.5747 17.6593 48.1072C17.4387 48.6398 17.4386 49.2382 17.6591 49.7708L20.6563 57.0041C20.8767 57.5369 21.2997 57.9604 21.8323 58.1814C22.3649 58.4023 22.9635 58.4026 23.4964 58.1823L26.6293 56.8845C27.6838 58.2131 28.8891 59.4148 30.2209 60.4654L28.9213 63.6054C28.8119 63.8691 28.7556 64.1518 28.7555 64.4373C28.7554 64.7228 28.8116 65.0055 28.9208 65.2693C29.0301 65.5331 29.1903 65.7727 29.3922 65.9746C29.5941 66.1764 29.8339 66.3364 30.0977 66.4455L37.331 69.4427C37.8638 69.6633 38.4625 69.6632 38.9954 69.4427C39.5282 69.2221 39.9517 68.799 40.1729 68.2663L41.4831 65.0996C43.1585 65.2879 44.8501 65.2825 46.5243 65.0835L47.8435 68.2663C48.0642 68.7989 48.4874 69.2219 49.02 69.4425C49.5526 69.6631 50.1509 69.6632 50.6836 69.4427L57.9168 66.4455C58.4497 66.2251 58.8731 65.8021 59.0941 65.2695C59.315 64.7368 59.3154 64.1383 59.095 63.6054L57.7597 60.3922C59.0641 59.3488 60.2452 58.16 61.28 56.8488L64.5182 58.1912C65.051 58.4116 65.6496 58.4112 66.1822 58.1903C66.7148 57.9693 67.1378 57.5459 67.3582 57.013L70.3554 49.7798C70.5759 49.2471 70.5758 48.6487 70.3552 48.1162C70.1346 47.5836 69.7116 47.1604 69.1791 46.9397L65.9141 45.5865C66.1015 43.9377 66.1015 42.2729 65.9141 40.624L69.1862 39.2691C69.4507 39.1581 69.6906 38.996 69.8923 38.792C70.0939 38.5881 70.2532 38.3462 70.361 38.0805C70.4688 37.8147 70.5231 37.5302 70.5206 37.2434C70.5181 36.9566 70.4589 36.6732 70.3465 36.4093Z" stroke="white" stroke-width="2.09929" stroke-linecap="round" stroke-linejoin="round"/>
</svg>
