<svg width="92" height="82" viewBox="0 0 92 82" fill="none" xmlns="http://www.w3.org/2000/svg">
<path d="M46 45.0001C47.0678 44.9752 48.1199 44.7372 49.0943 44.2998C50.0688 43.8625 50.946 43.2348 51.6744 42.4536C52.4028 41.6724 52.9677 40.7535 53.3358 39.7508C53.704 38.7482 53.868 37.6821 53.8182 36.6152V33.8397C53.8182 31.7662 52.9945 29.7776 51.5283 28.3114C50.0621 26.8452 48.0735 26.0215 46 26.0215C43.9265 26.0215 41.9379 26.8452 40.4717 28.3114C39.0055 29.7776 38.1818 31.7662 38.1818 33.8397V36.6152C38.132 37.6821 38.296 38.7482 38.6642 39.7508C39.0323 40.7535 39.5972 41.6724 40.3256 42.4536C41.054 43.2348 41.9312 43.8625 42.9057 44.2998C43.8801 44.7372 44.9322 44.9752 46 45.0001ZM46 45.0001C51.1991 45.0001 61.6364 47.4238 61.6364 52.8183V56.7274M46 45.0001C40.8009 45.0001 30.3636 47.4238 30.3636 52.8183V56.7274M77.605 18.086C72.7486 11.4141 65.9053 6.45019 58.0552 3.90528C50.2052 1.36037 41.7511 1.36503 33.9038 3.91858C26.0566 6.47213 19.2188 11.4436 14.3697 18.1209C9.5206 24.7982 6.90906 32.8388 6.90909 41.0911V43.0456H3L12.7727 56.7274L20.5909 43.0456H16.6818V41.0911C16.6818 33.3154 19.7707 25.8582 25.2689 20.36C30.7671 14.8618 38.2243 11.7729 46 11.7729M14.395 64.0961C19.2514 70.768 26.0947 75.7319 33.9448 78.2768C41.7949 80.8217 50.2489 80.8171 58.0962 78.2635C65.9434 75.71 72.7812 70.7385 77.6303 64.0612C82.4794 57.3839 85.0909 49.3433 85.0909 41.091V39.1365H89L79.2273 25.4547L71.4091 39.1365H75.3182V41.091C75.3182 48.8667 72.2293 56.3239 66.7311 61.8221C61.2329 67.3203 53.7757 70.4092 46 70.4092" stroke="white" stroke-width="2.2" stroke-miterlimit="10"/>
</svg>
